<?xml version="1.0" standalone="no"?>
<!DOCTYPE svg PUBLIC "-//W3C//DTD SVG 20010904//EN"
 "http://www.w3.org/TR/2001/REC-SVG-20010904/DTD/svg10.dtd">
<svg version="1.0" xmlns="http://www.w3.org/2000/svg"
 width="2560.000000pt" height="2560.000000pt" viewBox="0 0 2560.000000 2560.000000"
 preserveAspectRatio="xMidYMid meet">

<g transform="translate(0.000000,2560.000000) scale(0.100000,-0.100000)"
fill="#000000" stroke="none">
<path d="M13180 25153 c-75 -10 -118 -40 -152 -107 -40 -78 -33 -313 22 -706
10 -74 26 -205 35 -290 19 -179 77 -585 134 -946 22 -138 49 -325 61 -415 11
-90 25 -178 31 -195 11 -37 52 -76 97 -94 75 -29 221 8 312 80 73 58 554 805
863 1340 71 124 194 326 272 450 368 583 403 704 242 833 -30 25 -49 32 -97
35 -88 6 -137 -15 -209 -94 -115 -126 -209 -281 -441 -729 -84 -161 -120 -226
-238 -420 -81 -134 -105 -172 -189 -302 -21 -32 -90 -145 -154 -251 -83 -137
-119 -188 -123 -175 -3 10 -24 178 -46 373 -23 195 -52 436 -65 535 -14 99
-38 302 -55 450 -37 322 -64 487 -88 534 -9 20 -32 44 -51 55 -39 22 -125 43
-161 39z"/>
<path d="M11075 25099 c-206 -16 -501 -67 -625 -110 -155 -52 -227 -109 -255
-201 -19 -66 -20 -223 0 -365 13 -103 20 -175 65 -703 11 -129 24 -278 30
-330 5 -52 14 -158 20 -235 36 -472 83 -687 162 -735 64 -39 129 -36 358 15
150 34 365 76 508 99 303 51 403 86 476 167 96 107 84 304 -23 376 -56 38
-133 27 -356 -52 -183 -64 -334 -103 -534 -135 -69 -11 -125 -19 -127 -17 -8
10 -37 159 -55 285 -19 130 -20 161 -10 206 7 30 20 61 29 69 36 33 154 79
341 131 106 31 200 61 210 68 41 31 84 76 98 103 22 41 20 134 -3 182 -46 92
-134 106 -299 48 -250 -89 -290 -97 -345 -68 -74 39 -99 143 -100 421 0 143 3
189 15 212 29 56 180 107 445 150 269 43 318 59 350 113 23 38 26 150 6 207
-31 85 -148 116 -381 99z"/>
<path d="M16831 24335 c-84 -26 -157 -121 -258 -334 -67 -140 -232 -470 -543
-1088 -330 -654 -358 -759 -229 -853 44 -32 75 -44 394 -159 121 -43 268 -99
326 -124 192 -81 316 -119 404 -125 101 -6 144 7 203 61 73 69 111 168 93 250
-19 84 -84 116 -361 177 -223 50 -620 192 -620 222 0 21 76 211 125 314 68
141 102 174 180 174 64 0 137 -16 343 -76 84 -24 172 -44 196 -44 92 0 165 45
202 124 27 58 30 93 10 139 -30 71 -82 97 -271 138 -71 15 -156 37 -187 49
-156 58 -146 153 48 481 99 167 107 174 192 173 85 0 163 -24 428 -130 234
-94 276 -101 335 -61 39 26 99 135 99 180 0 94 -84 171 -310 283 -237 117
-461 202 -605 229 -93 18 -136 18 -194 0z"/>
<path d="M7750 24129 c-144 -14 -364 -49 -439 -69 -164 -46 -231 -128 -231
-284 0 -105 32 -209 140 -456 154 -351 313 -777 517 -1389 68 -205 132 -384
141 -397 47 -65 115 -67 285 -8 257 89 439 203 610 381 211 220 330 416 373
616 28 131 18 413 -22 587 -68 300 -240 583 -469 770 -133 109 -292 197 -404
225 -132 33 -315 42 -501 24z m341 -448 c263 -68 513 -308 589 -569 31 -103
39 -145 49 -234 6 -54 9 -112 7 -130 -3 -18 -7 -62 -11 -96 -24 -242 -179
-468 -391 -572 -47 -23 -100 -44 -118 -47 -29 -4 -37 -1 -58 28 -42 56 -46 65
-163 384 -85 232 -232 624 -282 755 -150 392 -153 419 -55 470 84 43 289 48
433 11z"/>
<path d="M19623 22921 c-112 -41 -260 -166 -458 -386 -77 -86 -315 -340 -425
-454 -59 -62 -330 -355 -450 -486 -80 -88 -181 -198 -226 -245 -150 -159 -194
-231 -194 -320 0 -45 4 -55 38 -89 20 -22 93 -77 162 -123 69 -47 184 -124
255 -173 203 -137 457 -295 540 -335 130 -63 275 27 275 173 0 100 -71 176
-263 283 -173 96 -308 188 -397 268 -32 29 -40 43 -36 59 10 37 98 147 313
388 236 264 415 451 769 804 138 138 267 270 287 295 61 78 107 161 107 197 0
65 -126 163 -209 163 -20 -1 -59 -9 -88 -19z"/>
<path d="M3833 21285 c-196 -53 -343 -161 -498 -367 -132 -174 -195 -304 -195
-401 0 -65 22 -102 166 -272 90 -107 914 -941 1262 -1278 l173 -167 53 0 c103
0 206 71 355 245 301 350 423 714 346 1032 -9 37 -37 110 -62 162 -92 192
-263 315 -506 365 -128 27 -198 22 -344 -24 -82 -27 -141 -40 -167 -38 -38 3
-41 5 -53 48 -8 25 -20 104 -29 175 -37 318 -109 474 -239 519 -59 20 -189 20
-262 1z m109 -466 c9 -5 32 -40 50 -77 32 -65 33 -70 32 -187 -2 -125 -18
-261 -37 -302 -5 -12 -19 -23 -29 -23 -51 0 -251 175 -349 305 -40 53 -41 56
-28 88 7 17 38 58 69 91 98 103 215 145 292 105z m971 -679 c129 -49 197 -138
197 -259 0 -122 -51 -274 -128 -389 -38 -55 -113 -132 -130 -132 -32 0 -140
88 -299 241 -292 282 -314 315 -252 386 66 76 164 132 287 163 102 26 242 22
325 -10z"/>
<path d="M21375 20684 c-233 -35 -525 -147 -745 -286 -396 -250 -515 -382
-635 -703 -122 -325 -96 -590 83 -840 179 -252 427 -426 714 -502 98 -26 114
-28 323 -27 253 0 344 15 506 79 475 190 848 501 1004 838 72 156 107 352 85
483 -47 295 -281 652 -516 789 -190 112 -388 161 -679 170 -60 2 -123 1 -140
-1z m405 -449 c148 -54 238 -138 314 -291 59 -120 76 -178 76 -262 0 -231
-171 -519 -397 -667 -98 -65 -254 -147 -363 -192 -363 -149 -713 -97 -895 134
-73 93 -89 146 -89 288 1 240 94 468 244 601 174 155 502 338 725 406 95 28
285 20 385 -17z"/>
<path d="M2039 18990 c-71 -37 -148 -139 -263 -347 -132 -238 -227 -478 -241
-605 -17 -157 54 -236 360 -404 72 -39 157 -87 190 -106 33 -19 209 -122 390
-228 182 -106 404 -237 495 -290 225 -133 329 -190 446 -244 251 -115 313 -89
423 176 71 170 190 437 238 532 138 275 174 405 143 517 -32 114 -207 215
-314 179 -67 -22 -100 -87 -175 -346 -43 -151 -105 -311 -181 -469 -68 -143
-64 -139 -128 -115 -88 34 -284 135 -339 176 -60 45 -83 79 -83 124 0 32 22
131 40 180 72 198 120 347 120 378 0 123 -93 222 -207 222 -100 0 -142 -57
-200 -270 -40 -148 -70 -217 -109 -254 -26 -24 -35 -27 -84 -24 -37 3 -77 15
-120 37 -106 54 -351 222 -371 256 -42 67 -11 176 140 499 55 116 102 225 106
242 8 42 -19 107 -58 137 -88 67 -154 81 -218 47z"/>
<path d="M23621 17795 c-62 -14 -186 -48 -306 -85 -33 -10 -116 -35 -185 -55
-69 -20 -201 -61 -295 -90 -186 -58 -334 -103 -525 -160 -499 -148 -907 -293
-1005 -357 -56 -37 -73 -77 -61 -140 16 -87 137 -206 219 -215 57 -7 228 27
438 86 192 54 269 72 281 65 14 -9 156 -221 223 -334 143 -242 225 -344 368
-458 102 -81 194 -135 298 -174 79 -30 91 -32 219 -31 156 0 247 21 360 85
121 68 259 227 340 393 86 177 115 346 107 628 -6 216 -54 609 -84 692 -24 65
-95 139 -148 154 -54 15 -165 13 -244 -4z m8 -565 c10 -39 14 -117 14 -265 1
-186 -2 -219 -21 -290 -50 -179 -135 -303 -249 -361 -49 -24 -70 -29 -134 -29
-68 0 -84 4 -155 39 -149 73 -318 275 -433 516 -74 156 -74 151 -2 184 79 35
158 62 256 87 44 11 154 44 245 74 208 67 369 105 435 102 27 -2 31 -6 44 -57z"/>
<path d="M752 16286 c-82 -45 -92 -195 -23 -342 51 -107 55 -110 666 -421 226
-115 442 -229 480 -254 39 -26 135 -81 215 -124 80 -43 160 -88 178 -100 29
-20 31 -23 15 -30 -49 -20 -933 -10 -1158 14 -112 11 -211 1 -260 -27 -67 -40
-100 -168 -71 -281 28 -111 45 -124 438 -350 356 -204 442 -257 613 -375 71
-50 177 -120 235 -155 l105 -63 -90 6 c-498 34 -1574 56 -1678 34 -74 -15
-111 -73 -127 -201 -10 -82 2 -172 31 -229 37 -72 -3 -69 893 -74 440 -2 864
-6 941 -8 185 -4 481 9 629 28 132 18 167 34 211 97 34 48 45 90 45 169 0 98
-26 142 -124 210 -43 30 -120 90 -170 133 -50 43 -202 152 -337 242 -213 143
-389 280 -389 305 0 24 175 65 340 80 69 5 170 17 225 25 55 8 143 19 195 25
250 30 382 95 411 202 34 130 -53 281 -244 421 -153 113 -426 263 -702 387
-190 86 -529 258 -790 401 -308 169 -400 213 -509 244 -97 27 -159 31 -194 11z"/>
<path d="M24125 14570 c-55 -4 -217 -8 -360 -9 -603 -4 -1252 -21 -1365 -35
-291 -38 -320 -82 -270 -418 27 -181 57 -426 65 -523 11 -141 36 -306 56 -371
54 -176 208 -255 374 -193 127 47 136 125 50 430 -40 141 -81 375 -93 535 -5
60 -7 112 -6 115 5 10 143 28 279 38 144 10 225 2 262 -25 42 -31 77 -130 123
-350 45 -215 60 -254 116 -303 47 -42 73 -51 141 -51 75 0 126 29 154 88 28
57 22 113 -27 282 -48 161 -52 264 -15 304 39 42 107 56 260 56 207 -1 338
-14 370 -37 55 -42 93 -206 126 -552 17 -184 35 -240 83 -265 44 -23 124 -30
180 -16 124 29 155 142 140 510 -8 204 -38 431 -73 545 -47 154 -110 219 -235
239 -65 10 -234 13 -335 6z"/>
<path d="M22092 12078 c-44 -15 -98 -78 -113 -130 -25 -94 16 -231 86 -283 77
-58 130 -77 451 -165 261 -71 327 -95 357 -128 52 -58 78 -224 43 -277 -19
-29 -67 -55 -179 -96 -177 -65 -278 -97 -417 -133 -230 -60 -471 -135 -525
-164 -28 -15 -61 -44 -77 -67 -76 -112 -57 -321 35 -387 24 -17 49 -24 103
-26 64 -4 84 1 190 39 66 23 264 91 441 150 177 59 369 125 426 148 123 48
190 64 229 56 34 -8 62 -49 102 -149 69 -175 203 -310 376 -380 102 -42 202
-59 340 -59 113 0 133 3 212 30 167 58 268 154 408 389 153 257 248 493 274
684 9 64 -9 175 -36 229 -50 98 -136 131 -553 215 -148 30 -360 75 -470 101
-110 25 -263 59 -340 75 -147 30 -488 111 -565 135 -25 7 -106 30 -180 50 -74
21 -208 62 -297 91 -170 56 -264 71 -321 52z m1510 -813 c331 -45 545 -95 671
-156 54 -26 56 -35 32 -146 -30 -144 -96 -299 -154 -366 -61 -69 -200 -116
-301 -102 -171 24 -220 74 -303 311 -20 54 -51 133 -70 174 -20 42 -43 96 -51
120 -26 74 -34 190 -12 190 2 0 87 -11 188 -25z"/>
<path d="M4070 10024 c-74 -13 -169 -42 -755 -235 -1678 -553 -2041 -676
-2539 -862 -208 -77 -220 -83 -232 -114 -20 -46 -17 -114 5 -173 56 -147 177
-201 366 -165 66 12 1059 338 1915 627 586 198 754 253 890 294 164 49 368
124 495 183 126 60 157 93 163 181 3 46 0 69 -17 104 -50 103 -186 178 -291
160z"/>
<path d="M20095 8253 c-53 -9 -67 -16 -100 -45 -75 -66 -102 -174 -70 -284 14
-51 27 -69 88 -129 40 -39 142 -119 227 -179 85 -60 212 -151 283 -203 70 -51
187 -136 260 -190 72 -53 164 -120 202 -148 110 -81 370 -271 485 -355 58 -42
157 -114 220 -160 636 -462 1275 -900 1312 -900 34 1 99 34 130 66 79 85 99
203 53 302 -44 94 -120 163 -417 374 -225 160 -534 383 -676 487 -452 333
-811 593 -992 716 -63 44 -195 140 -293 215 -402 306 -632 446 -712 433z"/>
<path d="M5005 7149 c-74 -43 -110 -114 -174 -345 -27 -99 -83 -285 -125 -414
-41 -129 -87 -281 -101 -338 -53 -212 -82 -258 -162 -254 -25 1 -75 10 -112
19 -86 23 -251 22 -340 -1 -129 -35 -242 -106 -351 -222 -167 -178 -228 -341
-203 -542 14 -112 61 -238 169 -457 96 -195 184 -325 299 -441 98 -99 170
-137 260 -138 105 0 167 42 440 298 94 87 239 220 324 295 163 144 239 212
428 381 258 231 597 505 768 620 83 56 171 151 186 199 38 126 -81 257 -242
269 -62 4 -75 2 -132 -26 -68 -34 -156 -95 -263 -184 -325 -268 -345 -281
-424 -275 -70 6 -136 35 -183 79 -33 32 -37 41 -37 84 0 27 4 65 9 84 57 228
87 318 206 630 115 299 141 416 110 496 -21 56 -97 134 -162 165 -55 26 -156
36 -188 18z m-585 -1774 c63 -18 155 -40 205 -50 139 -27 275 -86 275 -120 0
-19 -343 -368 -449 -456 -53 -44 -129 -101 -169 -126 l-72 -45 -35 26 c-31 24
-120 128 -172 203 -30 42 -78 138 -93 187 -45 142 85 368 240 417 41 13 147
-1 270 -36z"/>
<path d="M18500 5515 c-62 -20 -125 -75 -145 -129 -15 -39 -16 -55 -5 -138 7
-51 25 -156 40 -233 25 -124 42 -193 91 -367 12 -44 12 -48 -13 -80 -34 -45
-167 -173 -292 -281 -87 -77 -101 -85 -120 -75 -51 26 -162 127 -268 245 -297
329 -404 383 -513 261 -53 -58 -85 -132 -85 -198 l0 -54 728 -726 c803 -800
804 -801 955 -983 126 -151 149 -174 201 -197 67 -31 154 2 216 82 48 60 60
100 60 201 0 94 -18 183 -74 376 -46 154 -47 159 -151 616 -151 660 -379 1539
-418 1609 -12 22 -33 47 -47 58 -34 25 -105 31 -160 13z m173 -1494 c46 -118
111 -327 137 -447 17 -77 17 -91 5 -103 -13 -13 -18 -13 -42 0 -76 39 -413
403 -413 446 0 8 9 31 21 49 26 43 149 156 191 177 32 16 34 16 48 -5 8 -11
32 -64 53 -117z"/>
<path d="M7315 4789 c-205 -28 -432 -120 -640 -260 -182 -122 -459 -463 -581
-717 -163 -337 -196 -628 -104 -925 77 -246 422 -541 736 -628 108 -30 314
-37 439 -15 114 19 342 89 420 128 267 134 523 395 747 758 147 241 198 401
198 630 0 251 -39 421 -131 577 -43 73 -156 187 -238 243 -121 81 -318 162
-473 194 -95 20 -284 27 -373 15z m320 -404 c136 -36 254 -127 306 -238 55
-118 81 -245 83 -397 1 -161 -11 -208 -88 -355 -126 -239 -383 -550 -533 -645
-135 -86 -367 -118 -503 -69 -93 33 -249 150 -319 239 -75 95 -108 229 -97
400 12 198 52 322 157 480 209 315 473 535 699 584 87 19 223 19 295 1z"/>
<path d="M15789 4026 c-96 -20 -193 -61 -284 -121 -233 -150 -353 -367 -373
-670 -17 -262 23 -509 151 -945 19 -63 56 -187 82 -275 67 -228 87 -306 135
-520 23 -104 53 -218 67 -251 41 -103 102 -147 182 -129 46 10 143 77 183 126
92 112 90 168 -17 519 -42 140 -99 329 -127 420 -27 91 -69 230 -93 310 -113
373 -154 622 -133 816 14 132 58 203 152 246 72 32 205 32 291 -2 191 -74 431
-476 578 -965 64 -215 136 -515 162 -675 43 -265 75 -342 150 -356 69 -13 195
49 252 124 71 93 72 190 8 509 -185 923 -425 1477 -729 1685 -77 53 -202 111
-296 138 -96 27 -251 34 -341 16z"/>
<path d="M11039 3780 c-55 -9 -116 -39 -163 -80 -49 -43 -94 -172 -175 -495
-57 -231 -153 -490 -195 -524 -23 -20 -117 -9 -245 28 -57 17 -138 35 -180 42
-42 6 -93 18 -113 26 -37 15 -38 16 -38 67 0 73 26 169 113 412 114 318 118
386 27 444 -111 71 -209 87 -269 43 -40 -30 -84 -126 -167 -363 -191 -546
-271 -809 -399 -1315 -41 -159 -99 -369 -130 -465 -74 -232 -96 -319 -97 -393
-1 -86 18 -118 87 -153 49 -23 64 -26 123 -22 142 10 208 72 243 225 140 624
276 1027 360 1070 43 22 202 16 318 -12 154 -37 241 -85 241 -132 0 -76 -81
-365 -199 -708 -35 -99 -82 -237 -106 -307 -53 -153 -73 -270 -55 -322 15 -45
55 -79 125 -105 105 -39 174 -24 242 53 57 65 97 154 149 335 25 86 83 271
129 411 73 225 130 417 236 805 17 61 75 245 129 410 54 165 119 380 144 478
26 99 51 187 56 197 20 37 51 192 45 221 -13 59 -86 119 -160 131 -16 3 -51 2
-76 -2z"/>
<path d="M12915 3451 c-74 -34 -95 -74 -120 -231 -26 -165 -23 -484 16 -1391
20 -462 4 -494 -261 -533 -52 -8 -126 -17 -165 -21 -103 -10 -170 -39 -205
-86 -35 -48 -54 -125 -47 -187 6 -55 36 -85 111 -107 62 -19 111 -19 306 0
346 33 547 44 790 43 277 0 452 15 589 52 100 27 138 51 158 98 20 49 13 146
-17 207 -44 91 -133 108 -460 86 -97 -6 -188 -8 -205 -3 -52 14 -95 128 -114
307 -28 251 -42 642 -39 1085 3 507 1 524 -65 612 -62 82 -179 112 -272 69z"/>
</g>
</svg>
