<?xml version="1.0" standalone="no"?>
<!DOCTYPE svg PUBLIC "-//W3C//DTD SVG 20010904//EN"
 "http://www.w3.org/TR/2001/REC-SVG-20010904/DTD/svg10.dtd">
<svg version="1.0" xmlns="http://www.w3.org/2000/svg"
 width="500.000000pt" height="500.000000pt" viewBox="0 0 500.000000 500.000000"
 preserveAspectRatio="xMidYMid meet">

<g transform="translate(0.000000,500.000000) scale(0.100000,-0.100000)"
fill="#000000" stroke="none">
<path d="M2365 4210 c-4 -6 -4 -74 0 -151 6 -108 11 -139 21 -139 8 0 14 7 14
17 0 15 1 15 18 0 10 -10 34 -17 54 -17 47 0 79 35 85 92 8 84 -58 139 -126
104 l-30 -16 -3 57 c-3 53 -18 78 -33 53z m135 -130 c25 -25 27 -86 3 -112
-18 -21 -66 -24 -80 -5 -6 6 -13 28 -17 48 -5 28 -2 42 15 62 24 32 52 34 79
7z"/>
<path d="M2755 4169 c-2 -8 -16 -68 -30 -133 -28 -134 -29 -131 43 -142 104
-16 174 30 188 121 9 64 -12 108 -66 135 -53 27 -128 38 -135 19z m117 -46
c49 -24 63 -85 33 -143 -21 -41 -53 -60 -100 -60 -65 0 -66 4 -44 110 11 52
22 101 25 108 4 14 42 8 86 -15z"/>
<path d="M2020 4140 c-12 -7 -12 -25 -2 -116 6 -59 10 -109 9 -111 -2 -1 -30
36 -63 84 -32 47 -64 88 -69 90 -29 9 -32 -13 -19 -121 7 -61 12 -111 10 -113
-1 -2 -29 36 -61 83 -58 86 -75 101 -94 89 -8 -4 95 -159 155 -233 1 -2 11 -1
21 2 21 7 21 7 -2 191 l-6 50 62 -90 c77 -112 72 -107 92 -93 15 12 15 23 2
152 -8 77 -16 141 -18 142 -1 2 -9 -1 -17 -6z"/>
<path d="M2159 4071 c-32 -32 -37 -66 -18 -120 11 -30 52 -61 81 -61 35 0 88
22 88 37 0 11 -6 14 -22 9 -65 -18 -76 -18 -97 3 -12 12 -21 25 -21 30 0 5 26
15 58 21 85 17 83 15 71 47 -27 71 -88 85 -140 34z m101 -20 c12 -24 8 -27
-52 -36 -52 -8 -57 -2 -32 33 20 28 69 30 84 3z"/>
<path d="M3027 3989 c-37 -28 -54 -88 -37 -129 19 -45 111 -87 124 -55 3 10
-1 15 -12 15 -9 0 -32 9 -49 20 -26 15 -33 27 -33 50 0 16 2 30 5 30 3 0 33
-12 66 -26 34 -14 63 -23 66 -20 3 2 7 22 10 44 5 34 1 45 -20 66 -32 32 -83
35 -120 5z m105 -34 c17 -38 0 -49 -48 -29 -49 20 -49 20 -34 39 21 25 69 19
82 -10z"/>
<path d="M3236 3918 c-3 -13 -10 -50 -16 -83 -6 -33 -13 -70 -15 -82 -4 -15 1
-23 15 -28 17 -5 90 43 173 115 4 4 2 12 -6 18 -10 9 -28 -1 -81 -45 -46 -38
-67 -50 -63 -37 15 51 28 137 23 150 -8 21 -25 17 -30 -8z"/>
<path d="M1487 3873 c-5 -9 250 -190 261 -185 20 7 -4 28 -116 106 -123 85
-137 93 -145 79z"/>
<path d="M3389 3751 c-51 -50 -52 -87 -6 -136 33 -35 67 -48 74 -29 2 6 -8 16
-21 22 -39 18 -59 54 -46 86 l10 27 56 -46 57 -46 18 28 c27 40 23 70 -10 104
-43 42 -83 40 -132 -10z m115 -7 c18 -17 20 -32 7 -53 -8 -12 -13 -12 -33 2
-59 42 -64 47 -48 57 23 15 57 12 74 -6z"/>
<path d="M3630 3673 c-142 -149 -145 -152 -132 -165 18 -18 226 190 210 209
-6 7 -13 13 -17 13 -4 0 -31 -26 -61 -57z"/>
<path d="M1412 3708 c-7 -7 -12 -23 -12 -36 0 -20 -3 -22 -14 -13 -10 8 -16 9
-21 1 -7 -12 114 -150 132 -150 28 0 21 23 -21 68 -46 49 -58 86 -36 108 8 8
7 14 -3 22 -10 9 -16 9 -25 0z"/>
<path d="M1246 3529 c-32 -38 -34 -86 -4 -124 26 -33 71 -54 104 -47 30 5 70
45 78 78 9 33 -17 86 -53 107 -47 28 -95 22 -125 -14z m113 -25 c51 -43 35
-114 -25 -114 -32 0 -84 51 -84 81 0 30 28 59 56 59 12 0 36 -12 53 -26z"/>
<path d="M3614 3516 c-38 -38 -43 -70 -19 -116 26 -51 79 -64 135 -35 66 34
80 106 31 156 -43 43 -101 41 -147 -5z m132 -21 c14 -21 14 -30 4 -56 -24 -57
-105 -75 -130 -29 -36 68 84 149 126 85z"/>
<path d="M3750 3303 c-63 -36 -117 -67 -119 -69 -2 -2 -1 -10 3 -19 5 -15 11
-14 51 8 l45 26 0 -30 c0 -69 86 -102 155 -59 67 42 68 127 1 156 -17 7 -25
13 -18 14 13 0 17 26 5 33 -5 3 -60 -24 -123 -60z m134 -19 c35 -35 4 -94 -57
-109 -35 -9 -67 17 -67 56 0 53 87 90 124 53z"/>
<path d="M1115 3335 c-14 -13 -25 -36 -25 -50 0 -31 -3 -31 -56 0 -35 21 -44
22 -54 10 -13 -16 -16 -13 134 -99 114 -65 118 -67 124 -44 2 11 -8 23 -30 34
-55 28 -98 64 -98 83 0 10 9 26 21 37 21 19 22 19 92 -19 54 -29 72 -35 79
-25 4 7 8 15 8 19 0 7 -142 79 -158 79 -7 0 -24 -11 -37 -25z"/>
<path d="M1014 3144 c-4 -14 -12 -23 -18 -21 -45 19 -46 19 -46 -1 0 -12 9
-23 21 -27 12 -4 18 -12 15 -21 -7 -18 14 -30 24 -14 6 10 24 7 80 -13 l71
-27 24 25 c14 13 25 29 25 34 0 21 -21 22 -38 1 -17 -20 -18 -21 -57 -4 -22 9
-50 20 -62 25 -19 7 -21 12 -13 33 7 18 5 26 -5 30 -10 3 -17 -3 -21 -20z"/>
<path d="M3890 3109 c-65 -27 -82 -74 -50 -145 25 -58 46 -49 26 10 -15 43
-11 69 11 87 19 16 29 4 52 -61 20 -61 37 -66 79 -27 69 64 -26 175 -118 136z
m98 -41 c18 -18 15 -53 -7 -72 -18 -16 -19 -15 -35 30 -9 26 -16 49 -16 51 0
9 48 1 58 -9z"/>
<path d="M950 2981 c0 -14 15 -22 65 -36 73 -19 88 -32 83 -72 -4 -35 -33 -40
-114 -19 -56 15 -73 11 -74 -14 0 -7 129 -40 158 -40 37 0 65 36 60 78 -3 26
0 41 11 49 9 6 13 14 9 18 -5 5 -178 53 -195 55 -2 0 -3 -8 -3 -19z"/>
<path d="M3967 2886 c-49 -11 -88 -24 -88 -29 -1 -25 8 -28 51 -18 71 17 108
14 122 -9 7 -11 18 -20 25 -20 20 0 15 27 -8 43 -13 9 -16 17 -10 22 12 7 15
36 4 34 -5 -1 -48 -11 -96 -23z"/>
<path d="M970 2719 c-63 -16 -125 -32 -137 -34 -16 -4 -23 -13 -23 -29 0 -20
16 -30 129 -80 72 -31 132 -56 135 -56 3 0 6 8 6 18 0 10 -15 23 -41 34 -40
17 -40 17 -37 65 3 48 3 48 51 62 34 10 47 20 47 33 0 22 11 23 -130 -13z m0
-79 c0 -44 5 -44 -85 -4 l-40 17 50 12 c76 19 75 19 75 -25z"/>
<path d="M3990 2644 c-74 -7 -145 -13 -157 -13 -14 -1 -23 -7 -23 -17 0 -14 9
-16 58 -11 31 4 123 12 205 18 111 9 147 15 147 26 0 16 -40 15 -230 -3z"/>
<path d="M3920 2452 c0 -13 13 -24 40 -35 42 -16 46 -26 34 -86 -5 -23 -13
-33 -33 -37 -54 -12 -61 -16 -61 -35 0 -16 4 -18 28 -12 15 4 79 19 142 33
100 23 115 29 118 48 3 19 -12 29 -112 76 -149 70 -156 72 -156 48z m170 -131
c-34 -7 -63 -11 -64 -10 -2 2 -1 20 1 40 l5 36 60 -26 59 -26 -61 -14z"/>
<path d="M985 2370 c-93 -10 -178 -19 -187 -19 -17 -1 -27 -31 -10 -31 4 0 95
9 202 20 107 11 198 20 202 20 4 0 5 7 2 15 -4 8 -14 14 -23 14 -9 -1 -92 -9
-186 -19z"/>
<path d="M3886 2174 c-22 -22 -30 -58 -17 -82 9 -16 7 -21 -9 -25 -38 -10 -19
-24 63 -47 45 -12 90 -25 100 -27 12 -4 17 0 17 14 0 16 -13 23 -62 37 -73 20
-88 31 -88 61 0 41 24 50 88 36 79 -18 97 -18 97 -2 0 9 -23 22 -60 33 -74 22
-109 23 -129 2z"/>
<path d="M915 2170 c-3 -5 5 -21 19 -35 17 -17 20 -25 11 -25 -17 0 -20 -16
-4 -25 5 -4 50 3 100 15 74 19 89 25 89 42 0 14 -5 18 -17 14 -79 -23 -116
-28 -139 -18 -13 7 -24 18 -24 27 0 17 -25 21 -35 5z"/>
<path d="M1135 2030 c26 -50 15 -110 -20 -110 -5 0 -21 29 -33 65 -22 61 -25
64 -45 54 -43 -23 -57 -42 -57 -80 0 -30 6 -43 32 -64 26 -22 39 -26 70 -22
73 10 115 58 102 115 -9 39 -32 72 -49 72 -14 0 -14 -3 0 -30z m-70 -76 c20
-52 15 -62 -23 -48 -30 11 -42 55 -21 80 18 22 25 17 44 -32z"/>
<path d="M3805 1946 c-14 -14 -25 -30 -25 -35 0 -21 21 -22 38 -1 l17 21 62
-26 c57 -25 61 -29 53 -50 -8 -22 -5 -35 11 -35 4 0 11 9 14 21 6 17 13 20 36
15 24 -4 29 -2 29 13 0 10 -9 21 -20 24 -13 3 -18 11 -14 20 7 19 -16 34 -26
17 -9 -14 -19 -12 -98 19 l-53 21 -24 -24z"/>
<path d="M3757 1854 c-16 -16 -4 -31 53 -63 61 -35 76 -55 64 -85 -14 -37 -40
-37 -109 -1 -61 33 -85 37 -85 15 0 -16 122 -81 153 -82 37 -1 67 32 67 73 l0
29 47 -29 c35 -22 51 -27 60 -19 7 6 11 14 8 18 -4 6 -220 136 -245 148 -4 1
-9 -1 -13 -4z"/>
<path d="M1129 1827 c-50 -33 -63 -67 -45 -111 8 -19 24 -37 36 -41 15 -5 19
-12 15 -25 -10 -31 11 -32 62 -2 26 16 81 48 121 71 61 35 71 45 61 57 -10 12
-18 11 -55 -11 l-44 -26 0 31 c0 71 -83 103 -151 57z m117 -42 c20 -31 11 -61
-26 -80 -83 -43 -148 18 -85 80 33 34 88 34 111 0z"/>
<path d="M1315 1643 c-61 -15 -105 -85 -86 -135 14 -37 58 -68 97 -68 51 0
105 53 107 103 2 59 -63 113 -118 100z m69 -49 c53 -52 -49 -159 -104 -109
-30 27 -25 69 11 99 35 29 70 33 93 10z"/>
<path d="M3598 1611 c-27 -24 -33 -36 -33 -70 0 -103 144 -149 190 -60 28 53
13 104 -41 140 -41 27 -78 24 -116 -10z m116 -42 c28 -33 32 -50 16 -80 -16
-29 -74 -26 -105 6 -27 26 -33 73 -13 93 24 24 74 14 102 -19z"/>
<path d="M1398 1386 c-76 -81 -95 -106 -84 -115 10 -8 36 13 115 94 93 94 112
125 78 125 -7 0 -56 -47 -109 -104z"/>
<path d="M3474 1476 c-4 -11 9 -33 40 -66 47 -50 56 -76 34 -98 -9 -9 -9 -15
-1 -23 16 -16 33 -2 33 26 0 17 4 23 15 19 8 -3 19 -3 25 1 7 4 -16 35 -56 78
-76 81 -82 85 -90 63z"/>
<path d="M3237 1423 c-7 -11 219 -338 233 -338 5 0 11 3 13 7 3 9 -225 338
-234 338 -4 0 -10 -3 -12 -7z"/>
<path d="M1560 1410 c0 -5 14 -17 30 -25 37 -19 55 -58 39 -86 -7 -13 -14 -17
-22 -11 -7 4 -32 23 -56 42 -42 33 -44 33 -58 14 -37 -51 -24 -106 32 -130 31
-12 39 -12 70 0 40 17 75 68 75 110 0 20 -11 39 -36 62 -34 32 -74 45 -74 24z
m5 -124 c39 -33 39 -33 17 -45 -43 -23 -87 12 -75 57 7 29 11 28 58 -12z"/>
<path d="M1700 1214 c-69 -56 -80 -68 -66 -76 13 -8 31 3 82 48 55 47 64 53
60 33 -29 -134 -29 -159 -3 -159 17 0 47 196 33 210 -16 16 -19 14 -106 -56z"/>
<path d="M3103 1215 c-3 -9 0 -59 7 -111 6 -53 10 -97 8 -100 -2 -2 -31 34
-64 81 -58 83 -68 92 -90 77 -12 -8 15 -282 29 -283 27 -2 28 10 14 116 -9 60
-14 111 -13 112 1 2 31 -38 66 -87 92 -131 111 -122 86 41 -8 57 -14 105 -12
106 2 2 32 -37 66 -87 60 -84 81 -103 94 -81 7 11 -156 230 -172 231 -7 0 -15
-7 -19 -15z"/>
<path d="M1910 1196 c0 -7 14 -17 31 -22 39 -11 73 -53 63 -78 -4 -9 -12 -15
-18 -13 -6 3 -35 14 -64 26 l-53 21 -10 -27 c-18 -49 7 -97 58 -109 77 -20
151 85 112 158 -10 19 -81 57 -106 58 -7 0 -13 -6 -13 -14z m43 -127 c20 -7
37 -17 37 -21 0 -15 -48 -31 -74 -24 -21 5 -26 12 -26 37 0 21 4 30 13 26 6
-2 29 -10 50 -18z"/>
<path d="M2155 1106 c-95 -42 -120 -182 -43 -239 23 -17 147 -52 155 -43 4 4
53 246 53 262 0 7 -22 17 -50 23 -64 14 -78 13 -115 -3z m123 -31 c4 -4 -36
-206 -43 -213 -10 -10 -77 11 -102 32 -50 43 -29 148 38 184 21 11 95 9 107
-3z"/>
<path d="M2737 1108 c-28 -10 -33 -36 -6 -29 52 13 87 12 102 -4 30 -29 20
-41 -48 -54 -76 -15 -84 -34 -36 -82 36 -36 70 -37 109 -4 34 29 44 63 31 111
-18 63 -80 88 -152 62z m123 -117 c0 -47 -69 -70 -90 -30 -14 25 -13 26 36 38
55 13 54 13 54 -8z"/>
<path d="M2501 1073 c-46 -38 -43 -134 5 -172 31 -25 49 -26 86 -7 l27 14 7
-54 c5 -41 10 -54 23 -54 14 0 16 13 13 113 -3 142 -9 177 -27 177 -8 0 -15
-5 -15 -10 0 -7 -6 -7 -19 0 -30 15 -76 12 -100 -7z m103 -29 c23 -23 21 -89
-4 -114 -25 -25 -41 -25 -71 -1 -27 22 -33 87 -10 115 17 20 65 21 85 0z"/>
</g>
</svg>
